<svg width="45" height="54" viewBox="0 0 45 54" fill="none" xmlns="http://www.w3.org/2000/svg">
<path d="M45 22.5183C45 32.3802 30.8518 47.2412 24.9937 52.9718C23.5922 54.3428 21.4078 54.3428 20.0063 52.9718C14.1482 47.2412 0 32.3802 0 22.5183C0 10.0818 10.0736 0 22.5 0C34.9264 0 45 10.0818 45 22.5183Z" fill="#E6E9EE"/>
<circle cx="22.5" cy="22.5" r="13.5" fill="white"/>
<path d="M13.9575 24.8059C13.9575 25.1355 14.0959 25.3662 14.386 25.5046C15.1375 25.8606 15.5527 26.2891 15.9878 27.1658C16.1328 27.4426 16.3701 27.5876 16.6733 27.5876H27.8267C28.1299 27.5876 28.3672 27.4426 28.5122 27.1658C28.9473 26.2891 29.3625 25.8606 30.1074 25.5046C30.4041 25.3662 30.5425 25.1355 30.5425 24.8059V18.6755C30.5425 18.3459 30.4041 18.1152 30.1074 17.9768C29.3625 17.6143 28.9473 17.1924 28.5122 16.3157C28.3672 16.0388 28.1299 15.8938 27.8267 15.8938H16.6733C16.3701 15.8938 16.1328 16.0388 15.9878 16.3157C15.5527 17.1924 15.1375 17.6143 14.386 17.9768C14.0959 18.1152 13.9575 18.3459 13.9575 18.6755V24.8059ZM16.8118 24.7268V18.7546C16.8118 18.3789 17.0623 18.1284 17.4314 18.1284H27.062C27.4377 18.1284 27.6882 18.3789 27.6882 18.7546V24.7268C27.6882 25.1025 27.4377 25.353 27.062 25.353H17.4314C17.0623 25.353 16.8118 25.1025 16.8118 24.7268ZM17.7083 20.2378H18.5322V19.0249H17.8401C17.7544 19.0249 17.7083 19.071 17.7083 19.1567V20.2378ZM25.9678 20.2378H26.7917V19.1567C26.7917 19.071 26.7456 19.0249 26.6599 19.0249H25.9678V20.2378ZM19.4287 24.4565H25.0647V19.0249H19.4287V24.4565ZM17.7083 22.3538H18.5322V21.1277H17.7083V22.3538ZM25.9678 22.3538H26.7917V21.1277H25.9678V22.3538ZM25.9678 24.4631H26.6599C26.7456 24.4631 26.7917 24.4104 26.7917 24.3247V23.2437H25.9678V24.4631ZM17.7083 24.3247C17.7083 24.4104 17.7544 24.4565 17.8401 24.4565H18.5322V23.2502H17.7083V24.3247Z" fill="#CCD0D9"/>
</svg>
