<svg width="45" height="54" viewBox="0 0 45 54" fill="none" xmlns="http://www.w3.org/2000/svg">
<path d="M45 22.5183C45 32.3802 30.8518 47.2412 24.9937 52.9718C23.5922 54.3428 21.4078 54.3428 20.0063 52.9718C14.1482 47.2412 0 32.3802 0 22.5183C0 10.0818 10.0736 0 22.5 0C34.9264 0 45 10.0818 45 22.5183Z" fill="#E6E9EE"/>
<circle cx="22.5" cy="22.5" r="13.5" fill="white"/>
<path d="M22.75 28.1084C22.9214 28.1084 23.1653 27.9832 23.363 27.8579C27.0479 25.4849 29.4077 22.7031 29.4077 19.8818C29.4077 17.4626 27.74 15.7751 25.6372 15.7751C24.3254 15.7751 23.3433 16.5002 22.75 17.5879C22.1633 16.5068 21.1746 15.7751 19.8694 15.7751C17.7666 15.7751 16.0923 17.4626 16.0923 19.8818C16.0923 22.7031 18.4521 25.4849 22.137 27.8579C22.3347 27.9832 22.5852 28.1084 22.75 28.1084Z" fill="#CCD0D9"/>
</svg>
