<svg width="52" height="52" viewBox="0 0 52 52" fill="none" xmlns="http://www.w3.org/2000/svg">
<circle cx="26" cy="26" r="25" fill="#B8CC5C" stroke="#EAF3C3" stroke-width="2"/>
<circle cx="26" cy="26" r="21" fill="white" stroke="#EAF3C3" stroke-width="2"/>
<path d="M22.0723 37.75C22.9317 37.75 23.459 37.2617 23.4493 36.4414L23.2539 25.377C23.2539 24.9766 23.3907 24.7422 23.7129 24.5957C25.0411 24 25.6368 23.375 25.5489 21.5684L25.2754 15.582C25.2461 15.123 24.9825 14.8594 24.5625 14.8594C24.1426 14.8594 23.8985 15.1426 23.8985 15.6016L23.9766 21.4121C23.9766 21.7734 23.752 21.9883 23.4297 21.9883C23.0977 21.9883 22.8731 21.7832 22.8633 21.4414L22.7657 15.416C22.7559 14.9766 22.4922 14.7031 22.0723 14.7031C21.6524 14.7031 21.3887 14.9766 21.3789 15.416L21.2813 21.4414C21.2813 21.7734 21.0469 21.9883 20.7149 21.9883C20.3926 21.9883 20.168 21.7734 20.1778 21.4121L20.2461 15.6016C20.2461 15.1426 20.002 14.8594 19.5821 14.8594C19.1621 14.8594 18.8985 15.1328 18.8692 15.582L18.5957 21.5684C18.5079 23.375 19.1036 24 20.4317 24.5957C20.7539 24.7422 20.8907 24.9766 20.8907 25.377L20.6954 36.4414C20.6758 37.2617 21.2129 37.75 22.0723 37.75ZM29.836 29.1172L29.6407 36.4023C29.6114 37.2617 30.1582 37.75 31.0079 37.75C31.877 37.75 32.4043 37.3008 32.4043 36.4902V15.4648C32.4043 14.957 32.0723 14.7031 31.6817 14.7031C31.3106 14.7031 31.0469 14.9082 30.7246 15.3672C29.1329 17.6035 28.0391 21.9004 28.0391 25.8066V26.3242C28.0391 27.0273 28.2832 27.5059 28.8204 27.877L29.3477 28.2285C29.6993 28.4727 29.8457 28.7363 29.836 29.1172Z" fill="#B8CC5C"/>
</svg>
