<svg width="45" height="54" viewBox="0 0 45 54" fill="none" xmlns="http://www.w3.org/2000/svg">
<path d="M45 22.5183C45 32.3802 30.8518 47.2412 24.9937 52.9718C23.5922 54.3428 21.4078 54.3428 20.0063 52.9718C14.1482 47.2412 0 32.3802 0 22.5183C0 10.0818 10.0736 0 22.5 0C34.9264 0 45 10.0818 45 22.5183Z" fill="#E6E9EE"/>
<circle cx="22.5" cy="22.5" r="13.5" fill="white"/>
<path d="M20.4363 29.0312C21.0164 29.0312 21.3723 28.7017 21.3657 28.1479L21.2339 20.6794C21.2339 20.4092 21.3262 20.251 21.5437 20.1521C22.4402 19.75 22.8423 19.3281 22.783 18.1086L22.5984 14.0679C22.5786 13.7581 22.4006 13.5801 22.1172 13.5801C21.8337 13.5801 21.669 13.7712 21.669 14.0811L21.7217 18.0032C21.7217 18.2471 21.5701 18.3921 21.3525 18.3921C21.1284 18.3921 20.9768 18.2537 20.9702 18.0229L20.9043 13.9558C20.8977 13.6592 20.7197 13.4746 20.4363 13.4746C20.1528 13.4746 19.9749 13.6592 19.9683 13.9558L19.9023 18.0229C19.9023 18.2471 19.7441 18.3921 19.52 18.3921C19.3025 18.3921 19.1509 18.2471 19.1575 18.0032L19.2036 14.0811C19.2036 13.7712 19.0388 13.5801 18.7554 13.5801C18.4719 13.5801 18.294 13.7646 18.2742 14.0679L18.0896 18.1086C18.0303 19.3281 18.4324 19.75 19.3289 20.1521C19.5464 20.251 19.6387 20.4092 19.6387 20.6794L19.5068 28.1479C19.4937 28.7017 19.8562 29.0312 20.4363 29.0312ZM25.6768 23.2041L25.5449 28.1216C25.5252 28.7017 25.8943 29.0312 26.4678 29.0312C27.0544 29.0312 27.4104 28.728 27.4104 28.1809V13.9888C27.4104 13.646 27.1863 13.4746 26.9226 13.4746C26.6721 13.4746 26.4941 13.613 26.2766 13.9229C25.2022 15.4324 24.4639 18.3328 24.4639 20.9695V21.3188C24.4639 21.7935 24.6287 22.1165 24.9912 22.3669L25.3472 22.6042C25.5845 22.769 25.6834 22.947 25.6768 23.2041Z" fill="#CCD0D9"/>
</svg>
