<svg width="52" height="52" viewBox="0 0 52 52" fill="none" xmlns="http://www.w3.org/2000/svg">
<circle cx="26" cy="26" r="25" fill="#7A8AB8" stroke="#CFDBF6" stroke-width="2"/>
<circle cx="26" cy="26" r="21" fill="white" stroke="#CFDBF6" stroke-width="2"/>
<path d="M13.7148 30.4902C13.7148 30.9785 13.9199 31.3203 14.3496 31.5254C15.4629 32.0527 16.0781 32.6875 16.7227 33.9863C16.9375 34.3965 17.2891 34.6113 17.7383 34.6113H34.2617C34.7109 34.6113 35.0625 34.3965 35.2773 33.9863C35.9219 32.6875 36.5371 32.0527 37.6406 31.5254C38.0801 31.3203 38.2852 30.9785 38.2852 30.4902V21.4082C38.2852 20.9199 38.0801 20.5781 37.6406 20.373C36.5371 19.8359 35.9219 19.2109 35.2773 17.9121C35.0625 17.502 34.7109 17.2871 34.2617 17.2871H17.7383C17.2891 17.2871 16.9375 17.502 16.7227 17.9121C16.0781 19.2109 15.4629 19.8359 14.3496 20.373C13.9199 20.5781 13.7148 20.9199 13.7148 21.4082V30.4902ZM17.9434 30.373V21.5254C17.9434 20.9688 18.3145 20.5977 18.8613 20.5977H33.1289C33.6855 20.5977 34.0566 20.9688 34.0566 21.5254V30.373C34.0566 30.9297 33.6855 31.3008 33.1289 31.3008H18.8613C18.3145 31.3008 17.9434 30.9297 17.9434 30.373ZM19.2715 23.7227H20.4922V21.9258H19.4668C19.3398 21.9258 19.2715 21.9941 19.2715 22.1211V23.7227ZM31.5078 23.7227H32.7285V22.1211C32.7285 21.9941 32.6602 21.9258 32.5332 21.9258H31.5078V23.7227ZM21.8203 29.9727H30.1699V21.9258H21.8203V29.9727ZM19.2715 26.8574H20.4922V25.041H19.2715V26.8574ZM31.5078 26.8574H32.7285V25.041H31.5078V26.8574ZM31.5078 29.9824H32.5332C32.6602 29.9824 32.7285 29.9043 32.7285 29.7773V28.1758H31.5078V29.9824ZM19.2715 29.7773C19.2715 29.9043 19.3398 29.9727 19.4668 29.9727H20.4922V28.1855H19.2715V29.7773Z" fill="#7A8AB8"/>
</svg>
