<svg width="65" height="78" viewBox="0 0 65 78" fill="none" xmlns="http://www.w3.org/2000/svg">
<path d="M65 32.5265C65 46.7713 44.5638 68.2373 36.1021 76.5148C34.0777 78.4951 30.9223 78.4951 28.8979 76.5148C20.4362 68.2373 0 46.7713 0 32.5265C0 14.5626 14.5507 0 32.5 0C50.4493 0 65 14.5626 65 32.5265Z" fill="#FFD179"/>
<circle cx="32.5" cy="32.5" r="19.5" fill="white"/>
<path d="M32.1294 42.9624C35.6999 42.9624 37.8232 42.0579 37.8232 40.5059C37.8232 39.0872 36.0237 38.2112 32.9577 38.0779V34.1455C36.7854 33.8408 39.2705 31.3652 39.2705 27.7661C39.2705 25.7571 38.4326 23.1387 37.2138 21.2629C36.614 20.3394 34.7668 19.8347 32.1389 19.8347C29.5014 19.8347 27.6447 20.3394 27.0544 21.2629C25.8357 23.1292 25.0073 25.7571 25.0073 27.7661C25.0073 31.3748 27.4924 33.8408 31.3105 34.1455V38.0779C28.2541 38.2017 26.445 39.0872 26.445 40.5059C26.445 42.0674 28.5683 42.9624 32.1294 42.9624ZM32.1389 22.3389C30.0346 22.3389 28.5779 22.0818 28.5779 21.7771C28.5779 21.4819 30.0346 21.2344 32.1389 21.2344C34.2336 21.2344 35.6999 21.4819 35.6999 21.7771C35.6999 22.0818 34.2431 22.3389 32.1389 22.3389Z" fill="#656D78"/>
</svg>
