<svg width="65" height="78" viewBox="0 0 65 78" fill="none" xmlns="http://www.w3.org/2000/svg">
<path d="M65 32.5265C65 46.7713 44.5638 68.2373 36.1021 76.5148C34.0777 78.4951 30.9223 78.4951 28.8979 76.5148C20.4362 68.2373 0 46.7713 0 32.5265C0 14.5626 14.5507 0 32.5 0C50.4493 0 65 14.5626 65 32.5265Z" fill="#7A8AB8"/>
<circle cx="32.5" cy="32.5" r="19.5" fill="white"/>
<path d="M20.1609 35.8308C20.1609 36.3069 20.3608 36.6401 20.7798 36.8401C21.8652 37.3542 22.4651 37.9731 23.0935 39.2395C23.3029 39.6394 23.6457 39.8489 24.0837 39.8489H40.1941C40.632 39.8489 40.9748 39.6394 41.1843 39.2395C41.8127 37.9731 42.4126 37.3542 43.4885 36.8401C43.917 36.6401 44.1169 36.3069 44.1169 35.8308V26.9758C44.1169 26.4998 43.917 26.1665 43.4885 25.9666C42.4126 25.4429 41.8127 24.8335 41.1843 23.5671C40.9748 23.1672 40.632 22.9578 40.1941 22.9578H24.0837C23.6457 22.9578 23.3029 23.1672 23.0935 23.5671C22.4651 24.8335 21.8652 25.4429 20.7798 25.9666C20.3608 26.1665 20.1609 26.4998 20.1609 26.9758V35.8308ZM24.2837 35.7166V27.0901C24.2837 26.5474 24.6455 26.1855 25.1787 26.1855H39.0896C39.6323 26.1855 39.9941 26.5474 39.9941 27.0901V35.7166C39.9941 36.2593 39.6323 36.6211 39.0896 36.6211H25.1787C24.6455 36.6211 24.2837 36.2593 24.2837 35.7166ZM25.5786 29.2324H26.7688V27.4805H25.769C25.6452 27.4805 25.5786 27.5471 25.5786 27.6709V29.2324ZM37.509 29.2324H38.6992V27.6709C38.6992 27.5471 38.6325 27.4805 38.5088 27.4805H37.509V29.2324ZM28.0637 35.3262H36.2046V27.4805H28.0637V35.3262ZM25.5786 32.2888H26.7688V30.5178H25.5786V32.2888ZM37.509 32.2888H38.6992V30.5178H37.509V32.2888ZM37.509 35.3357H38.5088C38.6325 35.3357 38.6992 35.2595 38.6992 35.1357V33.5742H37.509V35.3357ZM25.5786 35.1357C25.5786 35.2595 25.6452 35.3262 25.769 35.3262H26.7688V33.5837H25.5786V35.1357Z" fill="#656D78"/>
</svg>
