<svg width="45" height="54" viewBox="0 0 45 54" fill="none" xmlns="http://www.w3.org/2000/svg">
<path d="M45 22.5183C45 32.3802 30.8518 47.2412 24.9937 52.9718C23.5922 54.3428 21.4078 54.3428 20.0063 52.9718C14.1482 47.2412 0 32.3802 0 22.5183C0 10.0818 10.0736 0 22.5 0C34.9264 0 45 10.0818 45 22.5183Z" fill="#E6E9EE"/>
<circle cx="22.5" cy="22.5" r="13.5" fill="white"/>
<path d="M22.4797 25.0696H23.0862C25.446 25.0696 27.2522 23.9556 28.1223 22.0901H28.498C30.0076 22.0901 30.9106 21.2991 30.9106 19.9873C30.9106 18.7415 30.0801 17.957 28.7024 17.8911C28.6497 16.2893 26.2832 15.2214 22.783 15.2214C19.2432 15.2214 16.8635 16.3157 16.8635 17.9438V19.2952C16.8635 22.6833 19.1047 25.0696 22.4797 25.0696ZM22.783 19.4929C20.0671 19.4929 18.0369 18.8008 18.0369 17.9438C18.0369 17.0869 20.0671 16.3948 22.783 16.3948C25.5054 16.3948 27.5291 17.0869 27.5291 17.9438C27.5291 18.8008 25.4988 19.4929 22.783 19.4929ZM28.7024 19.2952V19.0381C29.3813 19.0974 29.7637 19.4336 29.7637 19.9873C29.7637 20.5806 29.3088 20.9365 28.5178 20.9431C28.6365 20.4355 28.7024 19.8818 28.7024 19.2952ZM22.7434 28.2864C27.8586 28.2864 31.4644 26.8296 31.4644 24.6873C31.4644 23.8831 30.937 23.1711 30.0076 22.5977C29.5989 22.7756 29.1375 22.8811 28.6101 22.9009C27.5356 24.7664 25.5713 25.8804 23.0862 25.8804H22.4797C19.6782 25.8804 17.5029 24.3906 16.5603 22.0505C14.9519 22.6899 14.0291 23.5996 14.0291 24.6873C14.0291 26.8296 17.6414 28.2864 22.7434 28.2864Z" fill="#CCD0D9"/>
</svg>
