<svg width="65" height="78" viewBox="0 0 65 78" fill="none" xmlns="http://www.w3.org/2000/svg">
<path d="M65 32.5265C65 46.7713 44.5638 68.2373 36.1021 76.5148C34.0777 78.4951 30.9223 78.4951 28.8979 76.5148C20.4362 68.2373 0 46.7713 0 32.5265C0 14.5626 14.5507 0 32.5 0C50.4493 0 65 14.5626 65 32.5265Z" fill="#9089BE"/>
<circle cx="32.5" cy="32.5" r="19.5" fill="white"/>
<path d="M32.8611 40.6011C33.1087 40.6011 33.461 40.4202 33.7466 40.2393C39.0691 36.8115 42.4778 32.7935 42.4778 28.7183C42.4778 25.2239 40.0689 22.7864 37.0315 22.7864C35.1367 22.7864 33.718 23.8337 32.8611 25.4048C32.0137 23.8433 30.5855 22.7864 28.7002 22.7864C25.6629 22.7864 23.2444 25.2239 23.2444 28.7183C23.2444 32.7935 26.6531 36.8115 31.9756 40.2393C32.2613 40.4202 32.6231 40.6011 32.8611 40.6011Z" fill="#656D78"/>
</svg>
