<svg width="52" height="52" viewBox="0 0 52 52" fill="none" xmlns="http://www.w3.org/2000/svg">
<circle cx="26" cy="26" r="25" fill="#FFD179" stroke="#FFECC8" stroke-width="2"/>
<circle cx="26" cy="26" r="21" fill="white" stroke="#FFECC8" stroke-width="2"/>
<path d="M25.9902 37.8047C29.6523 37.8047 31.8301 36.877 31.8301 35.2852C31.8301 33.8301 29.9844 32.9316 26.8398 32.7949V28.7617C30.7656 28.4492 33.3145 25.9102 33.3145 22.2188C33.3145 20.1582 32.4551 17.4727 31.2051 15.5488C30.5898 14.6016 28.6953 14.084 26 14.084C23.2949 14.084 21.3906 14.6016 20.7852 15.5488C19.5352 17.4629 18.6855 20.1582 18.6855 22.2188C18.6855 25.9199 21.2344 28.4492 25.1504 28.7617V32.7949C22.0156 32.9219 20.1602 33.8301 20.1602 35.2852C20.1602 36.8867 22.3379 37.8047 25.9902 37.8047ZM26 16.6523C23.8418 16.6523 22.3477 16.3887 22.3477 16.0762C22.3477 15.7734 23.8418 15.5195 26 15.5195C28.1484 15.5195 29.6523 15.7734 29.6523 16.0762C29.6523 16.3887 28.1582 16.6523 26 16.6523Z" fill="#FFD179"/>
</svg>
