<svg width="65" height="78" viewBox="0 0 65 78" fill="none" xmlns="http://www.w3.org/2000/svg">
<path d="M65 32.5265C65 46.7713 44.5638 68.2373 36.1021 76.5148C34.0777 78.4951 30.9223 78.4951 28.8979 76.5148C20.4362 68.2373 0 46.7713 0 32.5265C0 14.5626 14.5507 0 32.5 0C50.4493 0 65 14.5626 65 32.5265Z" fill="#F99592"/>
<circle cx="32.5" cy="32.5" r="19.5" fill="white"/>
<path d="M32.4707 36.2117H33.3467C36.7554 36.2117 39.3643 34.6025 40.6211 31.908H41.1638C43.3443 31.908 44.6487 30.7654 44.6487 28.8706C44.6487 27.071 43.449 25.938 41.459 25.8428C41.3828 23.5291 37.9646 21.9866 32.9087 21.9866C27.7957 21.9866 24.3584 23.5671 24.3584 25.9189V27.8708C24.3584 32.7649 27.5957 36.2117 32.4707 36.2117ZM32.9087 28.1565C28.9859 28.1565 26.0533 27.1567 26.0533 25.9189C26.0533 24.6812 28.9859 23.6814 32.9087 23.6814C36.8411 23.6814 39.7642 24.6812 39.7642 25.9189C39.7642 27.1567 36.8316 28.1565 32.9087 28.1565ZM41.459 27.8708V27.4995C42.4397 27.5852 42.992 28.0708 42.992 28.8706C42.992 29.7275 42.335 30.2417 41.1924 30.2512C41.3638 29.5181 41.459 28.7183 41.459 27.8708ZM32.8516 40.8582C40.2403 40.8582 45.4485 38.7539 45.4485 35.6594C45.4485 34.4978 44.6868 33.4695 43.3443 32.6411C42.7539 32.8982 42.0874 33.0505 41.3257 33.0791C39.7737 35.7737 36.9363 37.3828 33.3467 37.3828H32.4707C28.4241 37.3828 25.282 35.231 23.9204 31.8508C21.5972 32.7744 20.2642 34.0884 20.2642 35.6594C20.2642 38.7539 25.482 40.8582 32.8516 40.8582Z" fill="#656D78"/>
</svg>
