<svg width="65" height="78" viewBox="0 0 65 78" fill="none" xmlns="http://www.w3.org/2000/svg">
<path d="M65 32.5265C65 46.7713 44.5638 68.2373 36.1021 76.5148C34.0777 78.4951 30.9223 78.4951 28.8979 76.5148C20.4362 68.2373 0 46.7713 0 32.5265C0 14.5626 14.5507 0 32.5 0C50.4493 0 65 14.5626 65 32.5265Z" fill="#B8CC5C"/>
<circle cx="32.5" cy="32.5" r="19.5" fill="white"/>
<path d="M29.5191 41.9341C30.3569 41.9341 30.8711 41.458 30.8616 40.6582L30.6712 29.8704C30.6712 29.48 30.8045 29.2515 31.1187 29.1086C32.4136 28.5278 32.9944 27.9185 32.9087 26.157L32.6421 20.3203C32.6135 19.8728 32.3565 19.6157 31.947 19.6157C31.5376 19.6157 31.2996 19.8918 31.2996 20.3394L31.3757 26.0046C31.3757 26.3569 31.1567 26.5664 30.8425 26.5664C30.5188 26.5664 30.2998 26.3665 30.2903 26.0332L30.1951 20.1584C30.1856 19.73 29.9285 19.4634 29.5191 19.4634C29.1096 19.4634 28.8526 19.73 28.843 20.1584L28.7478 26.0332C28.7478 26.3569 28.5193 26.5664 28.1956 26.5664C27.8814 26.5664 27.6624 26.3569 27.6719 26.0046L27.7385 20.3394C27.7385 19.8918 27.5005 19.6157 27.0911 19.6157C26.6817 19.6157 26.4246 19.8823 26.396 20.3203L26.1294 26.157C26.0437 27.9185 26.6245 28.5278 27.9194 29.1086C28.2337 29.2515 28.367 29.48 28.367 29.8704L28.1765 40.6582C28.1575 41.458 28.6812 41.9341 29.5191 41.9341ZM37.0886 33.5171L36.8982 40.6201C36.8696 41.458 37.4028 41.9341 38.2312 41.9341C39.0786 41.9341 39.5928 41.4961 39.5928 40.7058V20.2061C39.5928 19.7109 39.2691 19.4634 38.8882 19.4634C38.5264 19.4634 38.2693 19.6633 37.9551 20.1108C36.4031 22.2913 35.3367 26.4807 35.3367 30.2893V30.7939C35.3367 31.4795 35.5747 31.946 36.0984 32.3079L36.6126 32.6506C36.9553 32.8887 37.0982 33.1458 37.0886 33.5171Z" fill="#656D78"/>
</svg>
