<svg width="45" height="54" viewBox="0 0 45 54" fill="none" xmlns="http://www.w3.org/2000/svg">
<path d="M45 22.5183C45 32.3802 30.8518 47.2412 24.9937 52.9718C23.5922 54.3428 21.4078 54.3428 20.0063 52.9718C14.1482 47.2412 0 32.3802 0 22.5183C0 10.0818 10.0736 0 22.5 0C34.9264 0 45 10.0818 45 22.5183Z" fill="#E6E9EE"/>
<circle cx="22.5" cy="22.5" r="13.5" fill="white"/>
<path d="M22.2434 29.7432C24.7153 29.7432 26.1853 29.1169 26.1853 28.0425C26.1853 27.0603 24.9395 26.4539 22.8169 26.3616V23.6392C25.4668 23.4282 27.1873 21.7144 27.1873 19.2227C27.1873 17.8318 26.6072 16.019 25.7634 14.7205C25.3481 14.0811 24.0693 13.7317 22.25 13.7317C20.4241 13.7317 19.1387 14.0811 18.73 14.7205C17.8862 16.0125 17.3127 17.8318 17.3127 19.2227C17.3127 21.7209 19.0332 23.4282 21.6765 23.6392V26.3616C19.5605 26.4473 18.3081 27.0603 18.3081 28.0425C18.3081 29.1235 19.7781 29.7432 22.2434 29.7432ZM22.25 15.4653C20.7932 15.4653 19.7847 15.2874 19.7847 15.0764C19.7847 14.8721 20.7932 14.7007 22.25 14.7007C23.7002 14.7007 24.7153 14.8721 24.7153 15.0764C24.7153 15.2874 23.7068 15.4653 22.25 15.4653Z" fill="#CCD0D9"/>
</svg>
