<svg width="52" height="52" viewBox="0 0 52 52" fill="none" xmlns="http://www.w3.org/2000/svg">
<circle cx="26" cy="26" r="25" fill="#F99592" stroke="#F9CFD0" stroke-width="2"/>
<circle cx="26" cy="26" r="21" fill="white" stroke="#F9CFD0" stroke-width="2"/>
<path d="M25.0996 30.8809H25.998C29.4941 30.8809 32.1699 29.2305 33.459 26.4668H34.0156C36.252 26.4668 37.5898 25.2949 37.5898 23.3516C37.5898 21.5059 36.3594 20.3438 34.3184 20.2461C34.2402 17.873 30.7344 16.291 25.5488 16.291C20.3047 16.291 16.7793 17.9121 16.7793 20.3242V22.3262C16.7793 27.3457 20.0996 30.8809 25.0996 30.8809ZM25.5488 22.6191C21.5254 22.6191 18.5176 21.5938 18.5176 20.3242C18.5176 19.0547 21.5254 18.0293 25.5488 18.0293C29.582 18.0293 32.5801 19.0547 32.5801 20.3242C32.5801 21.5938 29.5723 22.6191 25.5488 22.6191ZM34.3184 22.3262V21.9453C35.3242 22.0332 35.8906 22.5312 35.8906 23.3516C35.8906 24.2305 35.2168 24.7578 34.0449 24.7676C34.2207 24.0156 34.3184 23.1953 34.3184 22.3262ZM25.4902 35.6465C33.0684 35.6465 38.4102 33.4883 38.4102 30.3145C38.4102 29.123 37.6289 28.0684 36.252 27.2188C35.6465 27.4824 34.9629 27.6387 34.1816 27.668C32.5898 30.4316 29.6797 32.082 25.998 32.082H25.0996C20.9492 32.082 17.7266 29.875 16.3301 26.4082C13.9473 27.3555 12.5801 28.7031 12.5801 30.3145C12.5801 33.4883 17.9316 35.6465 25.4902 35.6465Z" fill="#F99592"/>
</svg>
