<svg width="52" height="52" viewBox="0 0 52 52" fill="none" xmlns="http://www.w3.org/2000/svg">
<circle cx="26" cy="26" r="25" fill="#AAB2BD" stroke="#E6E9EE" stroke-width="2"/>
<circle cx="26" cy="26" r="21" fill="white" stroke="#E6E9EE" stroke-width="2"/>
<path d="M18.3113 33.4089C18.741 33.8289 19.4441 33.8289 19.8542 33.4187L25.8601 27.4129L31.866 33.4187C32.2859 33.8289 32.989 33.8386 33.4089 33.4089C33.8289 32.989 33.8289 32.2859 33.4187 31.8757L27.4128 25.8601L33.4187 19.8543C33.8289 19.4441 33.8386 18.7312 33.4089 18.3211C32.9792 17.9011 32.2859 17.9011 31.866 18.3113L25.8601 24.3171L19.8542 18.3113C19.4441 17.9011 18.7312 17.8914 18.3113 18.3113C17.8914 18.741 17.9011 19.4539 18.3113 19.8543L24.3171 25.8601L18.3113 31.8757C17.9011 32.2761 17.8914 32.9988 18.3113 33.4089Z" fill="#CCD0D9"/>
</svg>
